HIERARCHY
ROOT Hips
{
	OFFSET 55.445202 -4.693624 86.718201
	CHANNELS 6 Xposition Yposition Zposition Xrotation Yrotation Zrotation
	JOINT spine
	{
		OFFSET 0.000000 -0.393701 6.846367
		CHANNELS 3 Xrotation Yrotation Zrotation
		JOINT spine1
		{
			OFFSET 0.000000 -0.000001 9.496208
			CHANNELS 3 Xrotation Yrotation Zrotation
			JOINT spine2
			{
				OFFSET 0.000000 -0.000001 9.099091
				CHANNELS 3 Xrotation Yrotation Zrotation
				JOINT Neck
				{
					OFFSET 0.000000 -1.113784 23.361206
					CHANNELS 3 Xrotation Yrotation Zrotation
					JOINT Head
					{
						OFFSET 0.000000 -0.000001 7.058014
						CHANNELS 3 Xrotation Yrotation Zrotation
						End Site
						{
							OFFSET 0.000000 5.634188 17.084396
						}
					}
				}
				JOINT RightShoulder
				{
					OFFSET -3.831360 0.533489 9.826309
					CHANNELS 3 Xrotation Yrotation Zrotation
					JOINT RightArm
					{
						OFFSET 0.000000 -0.000002 12.888092
						CHANNELS 3 Xrotation Yrotation Zrotation
						JOINT RightArmRoll
						{
							OFFSET 0.000000 -0.000001 6.506165
							CHANNELS 3 Xrotation Yrotation Zrotation
							JOINT RightForeArm
							{
								OFFSET 0.000000 -0.000003 18.950104
								CHANNELS 3 Xrotation Yrotation Zrotation
								JOINT RightForeArmRoll
								{
									OFFSET 0.000000 -0.000001 7.300919
									CHANNELS 3 Xrotation Yrotation Zrotation
									JOINT RightHand
									{
										OFFSET 0.000000 -0.000002 14.651398
										CHANNELS 3 Xrotation Yrotation Zrotation
										End Site
										{
											OFFSET 0.000000 0.000000 0.100006
										}
									}
								}
							}
						}
					}
				}
				JOINT LeftShoulder
				{
					OFFSET 3.831360 0.533489 9.826309
					CHANNELS 3 Xrotation Yrotation Zrotation
					JOINT LeftArm
					{
						OFFSET 0.000000 -0.000002 12.888092
						CHANNELS 3 Xrotation Yrotation Zrotation
						JOINT LeftArmRoll
						{
							OFFSET 0.000000 -0.000001 6.506165
							CHANNELS 3 Xrotation Yrotation Zrotation
							JOINT LeftForeArm
							{
								OFFSET 0.000000 -0.000003 18.950104
								CHANNELS 3 Xrotation Yrotation Zrotation
								JOINT LeftForeArmRoll
								{
									OFFSET 0.000000 -0.000001 7.300934
									CHANNELS 3 Xrotation Yrotation Zrotation
									JOINT LeftHand
									{
										OFFSET 0.000000 -0.000002 14.651398
										CHANNELS 3 Xrotation Yrotation Zrotation
										End Site
										{
											OFFSET 0.000000 0.000000 0.100006
										}
									}
								}
							}
						}
					}
				}
			}
		}
	}
	JOINT RightUpLeg
	{
		OFFSET -6.068371 0.933477 -1.112778
		CHANNELS 3 Xrotation Yrotation Zrotation
		JOINT RightUpLegRoll
		{
			OFFSET 0.000000 -0.000003 17.179596
			CHANNELS 3 Xrotation Yrotation Zrotation
			JOINT RightLeg
			{
				OFFSET 0.000000 0.000003 -21.274300
				CHANNELS 3 Xrotation Yrotation Zrotation
				JOINT RightLegRoll
				{
					OFFSET 0.000000 -0.000003 21.343903
					CHANNELS 3 Xrotation Yrotation Zrotation
					JOINT RightFoot
					{
						OFFSET 0.000000 -0.000003 17.765198
						CHANNELS 3 Xrotation Yrotation Zrotation
						JOINT RightToeBase
						{
							OFFSET 0.000000 -0.000003 14.850792
							CHANNELS 3 Xrotation Yrotation Zrotation
							End Site
							{
								OFFSET 0.006294 0.829004 7.192139
							}
						}
					}
				}
			}
		}
	}
	JOINT LeftUpLeg
	{
		OFFSET 6.068371 0.933477 -1.112778
		CHANNELS 3 Xrotation Yrotation Zrotation
		JOINT LeftUpLegRoll
		{
			OFFSET 0.000000 -0.000003 17.179703
			CHANNELS 3 Xrotation Yrotation Zrotation
			JOINT LeftLeg
			{
				OFFSET 0.000000 -0.000004 21.274200
				CHANNELS 3 Xrotation Yrotation Zrotation
				JOINT LeftLegRoll
				{
					OFFSET 0.000000 -0.000003 21.541199
					CHANNELS 3 Xrotation Yrotation Zrotation
					JOINT LeftFoot
					{
						OFFSET 0.000000 -0.000003 17.567902
						CHANNELS 3 Xrotation Yrotation Zrotation
						JOINT LeftToeBase
						{
							OFFSET 0.000000 -0.000003 14.850800
							CHANNELS 3 Xrotation Yrotation Zrotation
							End Site
							{
								OFFSET -0.028210 0.829004 7.192139
							}
						}
					}
				}
			}
		}
	}
}
MOTION
Frames: 6
Frame Time: 0.041667
53.395805 -4.267462 86.229897 1.770907 -2.973991 9.048945 -0.808467 -2.051586 0.800069 2.415543 -4.109269 1.592756 4.062092 -4.089756 1.641889 1.363718 15.334263 7.849745 15.556000 -3.573099 5.998385 -6.339411 -38.865385 -5.549403 139.368384 -1.454318 73.755443 -0.000014 -0.000003 -0.000004 57.059158 -14.583823 12.665914 -0.000002 0.000004 -3.000001 -4.999643 -7.998759 -0.000209 -16.412050 66.142206 19.475642 109.190751 32.636850 -86.277761 0.000000 -0.000005 -0.000002 14.781822 41.744306 -9.441138 0.000003 -0.000007 2.999980 -5.000231 8.000638 0.000059 -20.214616 -177.925062 -0.675230 179.999991 -0.000005 -1.260997 153.949226 -5.313197 -1.335764 0.000000 -0.000002 0.771715 72.675405 8.726462 -3.389119 25.456885 -7.352799 -0.000005 -16.330755 176.435439 0.319543 -0.000005 -0.000004 -0.685548 -20.523894 2.359999 1.237750 -0.000002 -0.000001 -0.003014 69.411032 -5.030623 -6.968588 25.456959 7.355614 0.000001 
53.397606 -4.257245 86.227898 1.799982 -2.966698 9.109808 -0.811385 -2.059663 0.795074 2.409626 -4.125211 1.582630 4.056199 -4.105824 1.631962 1.341552 15.310595 7.915785 15.591239 -3.548305 6.062498 -6.345435 -38.888334 -5.559946 139.304222 -1.569740 73.914443 -0.000013 -0.000003 -0.000005 57.033118 -14.544031 12.618067 -0.000002 0.000003 -3.000003 -4.999645 -7.998762 -0.000208 -16.415781 66.103015 19.479428 109.221903 32.805313 -85.883420 -0.000001 -0.000006 0.000002 15.351134 41.746615 -9.697440 0.000003 -0.000007 2.999982 -5.000236 8.000633 0.000054 -20.239478 -177.921647 -0.673323 179.999991 -0.000004 -1.260999 153.950142 -5.319549 -1.336735 0.000001 -0.000002 0.771315 72.680207 8.726623 -3.390670 25.456883 -7.352799 -0.000005 -16.371397 176.416041 0.269390 -0.000004 -0.000004 -0.686368 -20.545549 2.413464 1.239826 -0.000003 -0.000001 -0.003540 69.434829 -5.048988 -6.922147 25.456960 7.355613 -0.000001 
53.390606 -4.254488 86.232903 1.829021 -2.959334 9.170198 -0.814208 -2.067722 0.789969 2.403899 -4.141086 1.572293 4.050494 -4.121836 1.621822 1.317648 15.290143 7.983024 15.628364 -3.527434 6.127936 -6.349937 -38.910358 -5.568402 139.243488 -1.683512 74.073579 -0.000012 -0.000003 -0.000005 57.006576 -14.506673 12.571494 -0.000002 0.000004 -3.000002 -4.999645 -7.998759 -0.000209 -16.420926 66.064902 19.484820 109.253923 32.979060 -85.469961 0.000000 -0.000005 0.000002 15.939790 41.753288 -9.964966 0.000004 -0.000009 2.999981 -5.000237 8.000637 0.000056 -20.264545 -177.918232 -0.671813 179.999991 -0.000005 -1.260997 153.950989 -5.324986 -1.336286 0.000002 -0.000002 0.770939 72.685309 8.726707 -3.392157 25.456883 -7.352799 -0.000005 -16.411541 176.396616 0.218847 -0.000004 -0.000004 -0.687151 -20.566425 2.466993 1.241936 -0.000003 -0.000001 -0.004031 69.457573 -5.067148 -6.876007 25.456960 7.355614 0.000001 
53.395309 -4.248505 86.231697 1.858037 -2.951900 9.230255 -0.816966 -2.075759 0.784788 2.398313 -4.156919 1.561800 4.044920 -4.137805 1.611517 1.292511 15.272096 8.051098 15.666827 -3.509275 6.194299 -6.353363 -38.931744 -5.575377 139.185390 -1.796393 74.232238 -0.000014 -0.000004 -0.000003 56.979620 -14.470924 12.525719 -0.000001 0.000003 -3.000000 -4.999645 -7.998762 -0.000210 -16.426952 66.027405 19.491224 109.285574 33.157669 -85.042098 -0.000002 -0.000006 0.000001 16.542341 41.762522 -10.240924 0.000003 -0.000007 2.999980 -5.000234 8.000636 0.000057 -20.289815 -177.914803 -0.670582 179.999991 -0.000005 -1.260999 153.951958 -5.330429 -1.335812 0.000001 -0.000002 0.770583 72.690541 8.726807 -3.393649 25.456887 -7.352799 -0.000005 -16.451513 176.376248 0.168335 -0.000004 -0.000004 -0.687912 -20.586721 2.520583 1.244080 -0.000002 -0.000000 -0.004500 69.479498 -5.085211 -6.829981 25.456962 7.355613 0.000001 
53.390209 -4.241514 86.234695 1.887015 -2.944406 9.290124 -0.819682 -2.083777 0.779561 2.392786 -4.172731 1.551205 4.039408 -4.153753 1.601119 1.266692 15.255245 8.119632 15.706020 -3.492625 6.261193 -6.356206 -38.952866 -5.581545 139.129314 -1.908400 74.392365 -0.000014 -0.000003 -0.000008 56.952549 -14.436090 12.480445 -0.000001 0.000005 -2.999999 -4.999645 -7.998759 -0.000211 -16.433550 65.990364 19.498284 109.316618 33.339731 -84.606455 0.000000 -0.000005 -0.000000 17.153014 41.772539 -10.522181 0.000003 -0.000010 2.999979 -5.000237 8.000636 0.000056 -20.315278 -177.911401 -0.669514 179.999991 -0.000005 -1.260998 153.952710 -5.335872 -1.336375 0.000001 -0.000002 0.770238 72.695862 8.726863 -3.394955 25.456885 -7.352799 -0.000005 -16.491379 176.355894 0.117677 -0.000004 -0.000005 -0.688661 -20.606739 2.574202 1.246263 -0.000003 -0.000000 -0.004955 69.501116 -5.103191 -6.783947 25.456962 7.355616 -0.000001 
53.392906 -4.237781 86.194901 1.915987 -2.936851 9.349932 -0.822393 -2.091804 0.774321 2.387280 -4.188535 1.540602 4.033926 -4.169693 1.590711 1.240701 15.238690 8.188278 15.745425 -3.476288 6.328207 -6.358878 -38.973790 -5.587483 139.074618 -2.021015 74.550688 -0.000013 -0.000003 -0.000003 56.925389 -14.401493 12.435351 -0.000002 0.000004 -3.000000 -4.999645 -7.998759 -0.000211 -16.440257 65.953413 19.505461 109.346138 33.524156 -84.168606 -0.000002 -0.000002 0.000000 17.766413 41.781842 -10.805853 0.000007 -0.000007 2.999979 -5.000235 8.000637 0.000057 -20.340640 -177.907986 -0.668477 179.999991 -0.000005 -1.260998 153.953516 -5.342208 -1.336353 0.000001 -0.000001 0.769897 72.701182 8.726944 -3.396462 25.456878 -7.352799 -0.000005 -16.531068 176.334584 0.067268 -0.000003 -0.000004 -0.689403 -20.626680 2.627825 1.248478 -0.000002 -0.000001 -0.005408 69.522549 -5.121111 -6.738002 25.456962 7.355611 0.000001 
